<svg xmlns="http://www.w3.org/2000/svg" width="212.5" height="28" style="border-radius:4px" aria-label="MY: IMPORT BLUEPRINT"><g shape-rendering="crispEdges"><path fill="#555" d="M0 0h55.5v28H0z"/><path fill="#03a9f4" d="M55.5 0h157v28h-157z"/></g><g fill="#fff" text-anchor="middle" font-family="Verdana,Geneva,DejaVu Sans,sans-serif" text-rendering="geometricPrecision" font-size="100"><path d="M16.047 7.523a.429.429 0 0 0-.303.129l-6.905 7.002a.343.343 0 0 0-.099.241.345.345 0 0 0 .346.345h1.281v4.92c0 .159.128.287.287.287h4.842v-2.245l-1.859-1.86a1.474 1.474 0 0 1-.577.117 1.477 1.477 0 0 1 0-2.955 1.476 1.476 0 0 1 1.36 2.054l1.076 1.077V13.36a1.478 1.478 0 0 1 .554-2.847 1.477 1.477 0 0 1 .553 2.847v3.275l1.076-1.077a1.475 1.475 0 0 1-.117-.577 1.477 1.477 0 1 1 1.477 1.478 1.474 1.474 0 0 1-.577-.118l-1.86 1.862v2.244h4.843a.286.286 0 0 0 .287-.287v-4.92h1.286a.346.346 0 0 0 .242-.098.345.345 0 0 0 .005-.488l-1.533-1.567v-2.47a.288.288 0 0 0-.287-.289h-1.197a.288.288 0 0 0-.287.288v.673L16.357 7.65a.43.43 0 0 0-.31-.128zm.003 3.876a.591.591 0 0 0 0 1.182.59.59 0 0 0 .59-.59.59.59 0 0 0-.59-.592zm-2.99 2.992a.59.59 0 0 0-.59.59.591.591 0 1 0 1.18 0 .59.59 0 0 0-.59-.59zm5.979 0a.591.591 0 1 0 .59.59.59.59 0 0 0-.59-.59z"/><g style="stroke-width:.3;stroke:#fff"><path d="m31.903 15.27.048.872q0 .072-.012.263 0 .191-.143.347-.132.143-.335.143-.192 0-.3-.012-.394 0-.394-.347 0-.287.263-2.307.263-2.032.335-2.618l.12-.98q.06-.407.083-.598.024-.192.072-.383.048-.191.144-.31.179-.228.693-.228.86.43 1.77 2.44.645 1.434.86 1.816.215.383.419.526l2.39-4.16q.252-.18.383-.18.383 0 .586.347.203.347.335.85.143.49.239 1.087.107.598.18 1.255.083.646.155 1.268.167 1.494.25 1.876.096.383.096.55 0 .156-.107.311-.108.144-.3.144-.19 0-.382-.144-.191-.155-.239-.37-.036-.227-.084-.586-.035-.359-.095-.801-.06-.454-.12-.945-.06-.502-.12-.956l-.107-.801-.072-.538q0-.24-.012-.442-.012-.204-.095-.251-.084-.048-.263.12-.168.155-.478.645-.67 1.04-1.937 3.503-.168.298-.443.131-.322-.18-.55-.92l-2.2-4.675q-.286.574-.525 3.802-.036.394-.048.67-.06.298-.06.585zM44.007 21.773q-.251.562-.598.562-.168 0-.251-.156-.072-.143 0-.346.263-1.112.753-2.535.502-1.423.67-1.913-.419-.418-1.316-1.674-1.84-2.582-1.84-2.833 0-.012.011-.024l.455-.454q.944.873 2.462 2.965.383.526.61.884.251-.502.395-.86l.227-.586.25-.598q.407-.992 1.125-2.522.107-.048.227-.048.299 0 .43.155.048.06.048.144 0 .071-.024.143zM31.14 18.797h10.006c.28 0 .57.055.57.357s-.29.735-.57.733l-9.962-.094c-.28-.003-.396-.15-.396-.451 0-.302.073-.545.353-.545z"/></g><text x="1340" y="175" font-weight="bold" transform="scale(.1)" textLength="1330">IMPORT BLUEPRINT</text></g></svg>