<svg xmlns="http://www.w3.org/2000/svg" xmlns:xlink="http://www.w3.org/1999/xlink" id="图层_1" x="0" y="0" version="1.1" viewBox="0 0 93.5 92.9" style="enable-background:new 0 0 93.5 92.9" xml:space="preserve"><style type="text/css">.st0{fill:#d8a94a}.st1{fill:#434649}.st2{fill:#787387}.st3{fill:#fff}</style><polygon points="90.4 0 9.8 0 9.8 8.6 80.6 8.7 83.7 11.5 83.7 84.2 93.5 84.2 93.5 2.9" class="st0"/><path d="M80.6,8.7L0,8.6V90l3.1,2.7l80.5,0.1V11.5L80.6,8.7z M38.4,39.7c-1.8-1.3-4-2.1-6.3-2.3	c-0.6-0.1-1.1,0.3-1.1,0.9c-0.1,0.6,0.4,1.1,0.9,1.1c2.2,0.2,4.1,1,5.8,2.3c3.1,2.3,4.9,6.2,4.5,10.3c-0.1,1.4-0.5,2.8-1.1,4	C40,55.9,39,55.7,38,55.5l-2.1-1.3c0.6-0.9,1-2.1,1-3.3c0-3-2.2-5.5-5-6l0,0c-0.4-0.1-1.1-0.1-1.6-0.3c-2.6-0.8-4.5-3.3-4.5-6.1	c0-1.6,0.6-3.1,1.6-4.3c0.8-1,2-1.7,3.3-2c0.8-0.2,1.9-0.2,3,0c9.1,1.3,16.1,9.2,16.1,18.7c0,1.2-0.1,2.4-0.3,3.5	c-0.8,0.4-1.7,0.7-2.6,1l-3-0.8c0.2-0.8,0.4-1.5,0.5-2.3C44.7,47.1,42.3,42.4,38.4,39.7z M34.6,49.8c0,1.4-1.1,2.5-2.5,2.5	c-1.4,0-2.5-1.1-2.5-2.5s1.1-2.5,2.5-2.5C33.4,47.2,34.6,48.4,34.6,49.8z M42.3,59.1c-5.3,0-10.2-2-13.9-5.8	c-3.7-3.7-5.8-8.7-5.8-13.9c0-5.3,2-10.2,5.8-13.9l1.1,1.1c-3.4,3.4-5.3,8-5.3,12.9s1.9,9.4,5.3,12.9c3.4,3.4,8,5.3,12.9,5.3	s9.4-1.9,12.9-5.3l1.1,1.1C52.5,57,47.6,59.1,42.3,59.1z M54.1,50.8h-2.5c0-11.6-9.4-21-21-21v-2.5c1.1-1,2.3-2,3.7-2.7	c11.7,1.8,20.9,11,22.5,22.5C56.1,48.5,55.2,49.7,54.1,50.8z M58.6,41.1l-1.1,0.4C54.7,33.3,48.2,26.9,40,24l0.4-1.1	c0.6-0.1,1.1-0.1,1.7-0.1c9.2,0,16.6,7.4,16.6,16.6C58.7,40,58.7,40.5,58.6,41.1z" class="st1"/><polygon points="80.4 89.8 83.2 92.4 3.5 92.4 .6 89.8" class="st2"/><g><path d="M14.2,68h6v1.7h-4.1V72h3.8v1.7h-3.8V76h4.2v1.7h-6.1C14.2,77.7,14.2,68,14.2,68z" class="st3"/><path d="M25.1,69.5c-0.9,0-1.4,0.4-1.4,1.1s0.6,1,1.4,1.2l0.8,0.2c1.6,0.4,2.7,1.2,2.7,2.8c0,1.7-1.3,2.8-3.5,2.8 s-3.6-1.1-3.6-3.1h1.8c0.1,1,0.8,1.4,1.8,1.4s1.6-0.5,1.6-1.2c0-0.6-0.5-0.9-1.5-1.2l-1-0.3c-1.5-0.4-2.4-1.2-2.4-2.6 c0-1.7,1.4-2.9,3.4-2.9s3.3,1.2,3.3,2.9h-1.8C26.6,69.9,26,69.5,25.1,69.5z" class="st3"/><path d="M29.9,68h3.5c2,0,3.2,1.3,3.2,3.2c0,1.9-1.2,3.2-3.3,3.2h-1.6v3.1h-1.9L29.9,68L29.9,68z M33.1,72.8 c1.1,0,1.6-0.6,1.6-1.6c0-0.9-0.5-1.6-1.6-1.6h-1.3v3.2H33.1z" class="st3"/><path d="M37.7,74.8h1.9c0,0.7,0.7,1.2,1.5,1.2c0.9,0,1.5-0.5,1.5-1.3S42,73.4,41,73.4h-0.8v-1.5H41 c0.9,0,1.5-0.5,1.5-1.3c0-0.7-0.5-1.2-1.3-1.2s-1.4,0.5-1.4,1.2H38c0-1.6,1.4-2.8,3.2-2.8c1.9,0,3.1,1.2,3.1,2.7 c0,1.1-0.7,1.8-1.7,2v0.1c1.3,0.2,2,1,2,2.2c0,1.6-1.4,2.8-3.5,2.8C39.2,77.6,37.8,76.4,37.7,74.8z" class="st3"/><path d="M46,76l3.2-3.1c0.8-0.8,1.3-1.4,1.3-2.1c0-0.8-0.6-1.4-1.4-1.4c-0.8,0-1.4,0.6-1.4,1.5h-1.8 c0-1.9,1.3-3.1,3.2-3.1s3.2,1.2,3.2,2.8c0,1.1-0.5,2-2.3,3.8l-1.3,1.4v0.1h3.8v1.6H46V76z" class="st3"/><path d="M57.9,73.5h-4.1v-1.6h4.1V73.5z" class="st3"/><path d="M62.9,69.5c-0.9,0-1.4,0.4-1.4,1.1s0.6,1,1.4,1.2l0.8,0.2c1.6,0.4,2.7,1.2,2.7,2.8c0,1.7-1.3,2.8-3.5,2.8 c-2.2,0-3.6-1.1-3.6-3.1h1.8c0.1,1,0.8,1.4,1.8,1.4s1.6-0.5,1.6-1.2c0-0.6-0.5-0.9-1.5-1.2l-1-0.3c-1.5-0.4-2.4-1.2-2.4-2.6 c0-1.7,1.4-2.9,3.4-2.9s3.3,1.2,3.3,2.9h-1.8C64.4,69.9,63.8,69.5,62.9,69.5z" class="st3"/></g></svg>