<svg xmlns="http://www.w3.org/2000/svg" xmlns:xlink="http://www.w3.org/1999/xlink" id="图层_1" x="0" y="0" version="1.1" viewBox="0 0 93.5 92.9" style="enable-background:new 0 0 93.5 92.9" xml:space="preserve"><style type="text/css">.st0{fill:#1cc1f4}.st1{fill:#787387}.st2{fill:#434649}</style><g><g><g><polygon points="90.5 0 9.4 0 9.4 8.2 81.1 8.2 84.2 11.1 84.2 84.7 93.5 84.7 93.5 2.9" class="st0"/></g></g></g><polygon points="80.9 89.8 83.7 92.4 3.5 92.4 .6 89.8" class="st1"/><g><g><polygon points="80.6 33.1 82.7 35.3 82.7 38.3 80.6 36.2" class="st1"/><polygon points="80.6 37.3 82.7 39.6 82.7 42.6 80.6 40.5" class="st1"/><polygon points="80.6 41.6 82.7 43.8 82.7 46.8 80.6 44.7" class="st1"/><polygon points="80.6 45.8 82.7 48 82.7 51 80.6 48.9" class="st1"/></g><g><polygon points="80.6 50 82.7 52.2 82.7 55.2 80.6 53.1" class="st1"/><polygon points="80.6 54.2 82.7 56.4 82.7 59.4 80.6 57.3" class="st1"/><polygon points="80.6 58.4 82.7 60.7 82.7 63.7 80.6 61.6" class="st1"/><polygon points="80.6 62.7 82.7 64.9 82.7 67.9 80.6 65.8" class="st1"/></g></g><path d="M41.9,70.3h-0.8v2.4h0.8c0.8,0,1.4-0.5,1.4-1.2C43.3,70.7,42.8,70.3,41.9,70.3z" class="st2"/><path d="M81.1,8.2H0V90l3.2,2.7l81,0.1V11.1L81.1,8.2z M40.7,22.6c0.6-0.1,1.1-0.1,1.7-0.1c9.2,0,16.7,7.5,16.7,16.7	c0,0.6,0,1.1-0.1,1.7l-1.1,0.4C55,33,48.5,26.5,40.3,23.7L40.7,22.6z M30.9,27.1c1.1-1.1,2.4-2,3.7-2.7C46.3,26,55.5,35.3,57.1,46.9	c-0.7,1.4-1.6,2.6-2.7,3.7H52c0-11.6-9.5-21.1-21.1-21.1V27.1z M33.7,31.8c9.2,1.4,16.2,9.3,16.2,18.8c0,1.2-0.1,2.4-0.3,3.6	c-0.8,0.4-1.7,0.7-2.6,1l-3-0.8c0.2-0.8,0.4-1.5,0.5-2.3c0.5-5.1-1.9-9.8-5.8-12.5c-1.8-1.3-4-2.1-6.4-2.3c-0.6-0.1-1.1,0.3-1.1,0.9	c-0.1,0.6,0.4,1.1,0.9,1.1c2.2,0.2,4.2,1,5.8,2.3c3.1,2.3,4.9,6.2,4.5,10.3c-0.1,1.4-0.5,2.8-1.2,4c-1.1-0.1-2.1-0.3-3.1-0.5	L36,53.9c0.6-0.9,1-2.1,1-3.3c0-3-2.2-5.5-5.1-6l0,0c-0.4-0.1-1.1-0.1-1.6-0.3c-2.6-0.8-4.5-3.3-4.5-6.2c0-1.6,0.6-3.1,1.6-4.3	c0.9-1,2-1.7,3.3-2C31.5,31.6,32.6,31.7,33.7,31.8z M34.8,49.6c0,1.4-1.1,2.6-2.6,2.6c-1.4,0-2.6-1.1-2.6-2.6c0-1.4,1.1-2.6,2.6-2.6	C33.6,47,34.8,48.2,34.8,49.6z M28.6,25.1l1.1,1.1c-3.5,3.5-5.4,8.1-5.4,13s1.9,9.5,5.4,13s8.1,5.4,13,5.4s9.5-1.9,13-5.4l1.1,1.1	c-3.7,3.7-8.7,5.8-14,5.8s-10.3-2.1-14-5.8s-5.8-8.7-5.8-14C22.8,33.8,24.8,28.8,28.6,25.1z M58.2,70.1c-0.7,0-1.1,0.4-1.1,1.2h-2.3	c0-1.9,1.3-3,3.4-3c2.1,0,3.5,1.1,3.5,2.7c0,1-0.5,1.9-2.5,3.6l-0.8,0.7v0.1h3.5v1.9h-6.8v-1.7l3.3-2.7c0.7-0.5,1.1-0.9,1.1-1.6	C59.3,70.5,58.8,70.1,58.2,70.1z M50,73.6h-0.9v-1.7H50c0.7,0,1.2-0.4,1.2-0.9s-0.4-0.9-1-0.9c-0.7,0-1.1,0.4-1.1,0.9h-2.3	c0-1.6,1.4-2.8,3.4-2.8s3.4,1.1,3.3,2.6c0,1-0.8,1.7-1.8,1.8v0.1c1.4,0.2,2.2,0.9,2.1,2c0,1.6-1.5,2.7-3.7,2.7	c-2.1,0-3.6-1.2-3.6-2.8H49c0,0.5,0.5,0.9,1.2,0.9s1.1-0.4,1.1-0.9C51.3,73.9,50.8,73.6,50,73.6z M45.8,71.5c0,1.9-1.4,3.1-3.4,3.1	h-1.3v2.6h-2.4v-8.9h3.8C44.5,68.4,45.8,69.6,45.8,71.5z M34,73.8l-0.9-0.2c-1.6-0.3-2.5-1.1-2.5-2.5c0-1.7,1.5-2.8,3.6-2.8	s3.5,1.2,3.5,2.9h-2.3c0-0.6-0.4-0.9-1.2-0.9c-0.7,0-1.1,0.3-1.1,0.7c0,0.4,0.4,0.7,1.2,0.8L35,72c2,0.4,2.8,1.4,2.8,2.7	c0,1.8-1.4,2.7-3.6,2.7c-2.3,0-3.8-1-3.8-3.2h2.3c0,0.8,0.6,1.2,1.5,1.2c0.8,0,1.2-0.3,1.2-0.7C35.3,74.2,34.9,74,34,73.8z M22.9,68.4h6.4v1.9h-4v1.5H29v1.9h-3.7v1.5h4v1.9h-6.4V68.4z M3.5,92.4l-2.9-2.6h80.3l2.8,2.6H3.5z" class="st2"/></svg>