<svg xmlns="http://www.w3.org/2000/svg" xmlns:xlink="http://www.w3.org/1999/xlink" id="图层_1" x="0" y="0" version="1.1" viewBox="0 0 93.5 92.9" style="enable-background:new 0 0 93.5 92.9" xml:space="preserve"><style type="text/css">.st0{fill:#147af4}.st1{fill:#787387}.st2{fill:#434649}</style><g><g><g><polygon points="90.5 0 9.4 0 9.4 8.2 81.1 8.2 84.2 11.1 84.2 84.7 93.5 84.7 93.5 2.9" class="st0"/></g></g></g><polygon points="80.9 89.8 83.7 92.4 3.5 92.4 .6 89.8" class="st1"/><g><g><polygon points="80.6 41.6 82.7 43.8 82.7 46.8 80.6 44.7" class="st1"/><polygon points="80.6 45.8 82.7 48 82.7 51 80.6 48.9" class="st1"/></g><g><polygon points="80.6 50 82.7 52.2 82.7 55.2 80.6 53.1" class="st1"/></g></g><g><path d="M81.1,8.2H0V90l3.2,2.7l81,0.1V11.1L81.1,8.2z M65.9,68.1c1.8,0,3,1.1,3.2,2.6h-1.8c-0.1-0.7-0.6-1-1.3-1 c-1.2,0-1.8,1.1-1.8,2.8h0.1c0.4-0.8,1.3-1.3,2.2-1.3c1.6,0,2.7,1.2,2.7,2.9c0,1.8-1.3,3.1-3.3,3.1c-1.8,0-3.5-1.1-3.5-4.4 C62.3,69.8,63.7,68.1,65.9,68.1z M61,70.7h-1.8c-0.1-0.7-0.6-1-1.3-1c-1.2,0-1.8,1.1-1.8,2.8h0.1c0.4-0.8,1.3-1.3,2.2-1.3 c1.6,0,2.7,1.2,2.7,2.9c0,1.8-1.3,3.1-3.3,3.1c-1.8,0-3.5-1.1-3.5-4.4c0-3,1.4-4.8,3.6-4.8C59.6,68.1,60.8,69.2,61,70.7z M40.7,22.6c0.6-0.1,1.1-0.1,1.7-0.1c9.2,0,16.7,7.5,16.7,16.7c0,0.6,0,1.1-0.1,1.7l-1.1,0.4C55,33,48.5,26.5,40.3,23.7L40.7,22.6z M30.9,27.1c1.1-1.1,2.4-2,3.7-2.7C46.3,26,55.5,35.3,57.1,46.9c-0.7,1.4-1.6,2.6-2.7,3.7H52c0-11.6-9.5-21.1-21.1-21.1V27.1z M33.7,31.8c9.2,1.4,16.2,9.3,16.2,18.8c0,1.2-0.1,2.4-0.3,3.6c-0.8,0.4-1.7,0.7-2.6,1l-3-0.8c0.2-0.8,0.4-1.5,0.5-2.3 c0.5-5.1-1.9-9.8-5.8-12.5c-1.8-1.3-4-2.1-6.4-2.3c-0.6-0.1-1.1,0.3-1.1,0.9c-0.1,0.6,0.4,1.1,0.9,1.1c2.2,0.2,4.2,1,5.8,2.3 c3.1,2.3,4.9,6.2,4.5,10.3c-0.1,1.4-0.5,2.8-1.2,4c-1.1-0.1-2.1-0.3-3.1-0.5L36,53.9c0.6-0.9,1-2.1,1-3.3c0-3-2.2-5.5-5.1-6 c-0.4-0.1-1.1-0.1-1.6-0.3c-2.6-0.8-4.5-3.3-4.5-6.2c0-1.6,0.6-3.1,1.6-4.3c0.9-1,2-1.7,3.3-2C31.5,31.6,32.6,31.7,33.7,31.8z M34.8,49.6c0,1.4-1.1,2.6-2.6,2.6c-1.4,0-2.6-1.1-2.6-2.6c0-1.4,1.1-2.6,2.6-2.6C33.6,47,34.8,48.2,34.8,49.6z M28.6,25.1l1.1,1.1 c-3.5,3.5-5.4,8.1-5.4,13s1.9,9.5,5.4,13s8.1,5.4,13,5.4s9.5-1.9,13-5.4l1.1,1.1c-3.7,3.7-8.7,5.8-14,5.8s-10.3-2.1-14-5.8 s-5.8-8.7-5.8-14C22.8,33.8,24.8,28.8,28.6,25.1z M49.7,69.6c-0.8,0-1.3,0.5-1.3,1.4h-1.8c0-1.7,1.3-2.9,3.1-2.9 c1.9,0,3.2,1.1,3.2,2.6c0,1-0.5,1.8-2.3,3.5l-1.3,1.3v0.1H53v1.5h-6.3v-1.4l3.2-2.9c0.8-0.8,1.2-1.3,1.2-2 C51,70.1,50.5,69.6,49.7,69.6z M38.8,70.5c0-1.4,1.3-2.4,3.1-2.4s3.1,1,3.1,2.4c0,1-0.7,1.8-1.6,2v0.1c1.1,0.2,1.9,1.1,1.9,2.2 c0,1.4-1.4,2.5-3.4,2.5s-3.4-1.1-3.4-2.5c0-1.1,0.8-2,1.9-2.2v-0.1C39.4,72.3,38.8,71.5,38.8,70.5z M37.4,71.2c0,1.8-1.2,3-3.2,3 h-1.6v2.9h-1.9v-8.9h3.5C36.2,68.2,37.4,69.5,37.4,71.2z M26,73.4l-1-0.2c-1.5-0.4-2.4-1.1-2.4-2.4c0-1.6,1.4-2.7,3.4-2.7 s3.3,1.1,3.3,2.7h-1.8c-0.1-0.7-0.6-1.1-1.5-1.1s-1.4,0.4-1.4,1s0.6,0.9,1.4,1.1l0.8,0.2c1.5,0.3,2.7,1.1,2.7,2.6 c0,1.6-1.3,2.7-3.4,2.7c-2.2,0-3.5-1-3.6-2.9h1.8c0.1,0.9,0.8,1.3,1.7,1.3c1,0,1.6-0.4,1.6-1.1C27.5,74,27,73.7,26,73.4z M15.2,68.2h6v1.5h-4.1v2.1h3.8v1.5h-3.8v2.1h4.1v1.5h-6C15.2,76.9,15.2,68.2,15.2,68.2z M3.5,92.4l-2.9-2.6h80.3l2.8,2.6H3.5z" class="st2"/><path d="M65.8,75.7c0.9,0,1.5-0.7,1.5-1.6s-0.6-1.6-1.5-1.6s-1.5,0.7-1.5,1.6S64.9,75.7,65.8,75.7z" class="st2"/><path d="M32.6,69.8v3h1.3c1.1,0,1.6-0.6,1.6-1.5s-0.5-1.5-1.6-1.5H32.6z" class="st2"/><path d="M41.9,71.9c0.7,0,1.3-0.5,1.3-1.2s-0.5-1.2-1.3-1.2s-1.3,0.5-1.3,1.2C40.6,71.4,41.1,71.9,41.9,71.9z" class="st2"/><path d="M41.9,75.8c0.9,0,1.5-0.5,1.5-1.3s-0.6-1.3-1.5-1.3s-1.5,0.6-1.5,1.3C40.4,75.3,41,75.8,41.9,75.8z" class="st2"/><path d="M57.7,75.7c0.9,0,1.5-0.7,1.5-1.6s-0.6-1.6-1.5-1.6s-1.5,0.7-1.5,1.6S56.9,75.7,57.7,75.7z" class="st2"/></g></svg>