<svg xmlns="http://www.w3.org/2000/svg" xmlns:xlink="http://www.w3.org/1999/xlink" id="_x31_0" x="0" y="0" version="1.1" viewBox="0 0 512 512" style="width:256px;height:256px;opacity:1" xml:space="preserve"><style type="text/css">.st0{fill:#374149}</style><g><polygon points="491.05 40.488 511.995 11.262 500.733 0 475.71 17.93 471.617 20.828 471.636 20.848 471.507 20.942" class="st0" style="fill:#e1564b"/><path d="M84.492,412.624c-4.109,4.11-4.098,10.778,0,14.875c4.11,4.11,10.766,4.11,14.875,0 c4.094-4.098,4.11-10.766,0-14.875C95.27,408.526,88.586,408.526,84.492,412.624z M93.773,421.906 c-1.019,1.019-2.668,1.019-3.691,0c-1.02-1.02-1.02-2.668,0.004-3.691c1.004-1.004,2.668-1.02,3.687,0 C94.793,419.238,94.782,420.902,93.773,421.906z" class="st0" style="fill:#e1564b"/><path d="M168.621,334.086c-2.558,2.558-2.558,6.726,0,9.285c2.574,2.57,6.723,2.558,9.282,0 c2.574-2.574,2.574-6.711,0-9.285C175.344,331.526,171.195,331.515,168.621,334.086z" class="st0" style="fill:#e1564b"/><path d="M204.41,298.3c-2.559,2.559-2.559,6.723,0,9.282c2.57,2.57,6.722,2.558,9.281,0 c2.574-2.57,2.574-6.711,0-9.282C211.133,295.742,206.981,295.726,204.41,298.3z" class="st0" style="fill:#e1564b"/><path d="M249.48,271.793c2.57-2.57,2.586-6.723,0.012-9.298c-2.558-2.554-6.722-2.554-9.297,0.016 c-2.558,2.558-2.558,6.726,0,9.282C242.77,274.366,246.921,274.351,249.48,271.793z" class="st0" style="fill:#e1564b"/><path d="M462.401,20.707c-5.34-5.34-14.05-5.356-19.39-0.016L304.363,159.343l-19.824-9.086l-16.676,16.676 l-6.266,6.262l-11.77,11.774l-6.262,6.262l-15.45,15.445l8.305,17.618L55.637,405.074c-8.457,8.461-8.457,22.214-0.011,30.66 l1.328,1.328l-30.406,30.402L0.922,503.995c-0.699,1.004-1.008,2.207-0.894,3.355c0.098,1.16,0.586,2.293,1.453,3.157 c1.746,1.75,4.473,1.988,6.5,0.574l36.012-25.191l30.926-30.867l1.34,1.344c8.457,8.457,22.214,8.457,30.671,0L287.71,275.582 l17.602,8.289l15.45-15.445l6.262-6.266l11.77-11.77l6.262-6.262l16.68-16.68l-9.086-19.82L491.296,68.98 c5.34-5.343,5.34-14.038-0.015-19.39L462.401,20.707z M330.405,242.003l-11.335-11.336c-1.734-1.734-1.75-4.546-0.016-6.277 c0.867-0.867,2-1.301,3.133-1.286c1.145,0,2.278,0.43,3.145,1.297l11.336,11.34L330.405,242.003z M301.019,242.422 c0.867-0.867,2-1.301,3.133-1.286c1.149,0,2.278,0.434,3.145,1.301l11.34,11.336l-6.266,6.262l-4.555-4.554l-6.781-6.782 c-0.406-0.406-0.727-0.867-0.922-1.367C299.386,245.706,299.691,243.75,301.019,242.422z M264.676,211.89 c-0.504-0.223-0.966-0.516-1.371-0.922l-6.782-6.777l-4.57-4.574l6.262-6.262l11.352,11.351c1.722,1.719,1.734,4.527,0,6.262 c-0.867,0.867-2,1.301-3.129,1.286C265.82,212.254,265.218,212.129,264.676,211.89z M284.469,194.222 c-1.145,0-2.278-0.434-3.129-1.286l-11.352-11.351l6.262-6.266l11.352,11.351c1.718,1.723,1.734,4.531,0,6.262 C286.734,193.801,285.602,194.234,284.469,194.222z M245.054,240.87c6.324,9.91,14.695,18.352,24.438,24.906 c0.562,0.386,1.082,0.836,1.652,1.211l-15.5,15.5l-13.214,13.023c0.453-2.078-0.086-4.348-1.73-5.992 c-2.558-2.559-6.711-2.57-9.282,0c-2.558,2.558-2.558,6.726,0,9.281c0.586,0.59,1.321,0.863,2.031,1.18 c0.066,0.031,0.118,0.078,0.18,0.106c0.703,0.285,1.386,0.394,2.133,0.426c0.09,0.004,0.168,0.05,0.258,0.05 c0.254,0,0.504-0.015,0.778-0.015c0.218,0,0.469,0.031,0.718,0.07l-16.586,16.586l-14.285,14.094 c0.453-2.074-0.09-4.347-1.734-5.988c-2.559-2.558-6.707-2.57-9.282,0c-2.558,2.558-2.558,6.722,0,9.282 c0.59,0.59,1.324,0.863,2.039,1.183c0.058,0.027,0.11,0.074,0.172,0.098c0.703,0.289,1.39,0.398,2.133,0.426 c0.09,0.004,0.168,0.051,0.262,0.051c0.25,0,0.504-0.016,0.774-0.016c0.222,0,0.469,0.031,0.722,0.07L94.348,443.784 c-1.524,1.524-3.985,1.524-5.508,0l-1.328-1.328l-2.797-2.797l-12.387-12.382l-2.793-2.797l-1.328-1.329 c-1.512-1.511-1.512-3.972,0.012-5.496L175.668,310.21c-0.519,2.137,0.066,4.488,1.73,6.148c2.558,2.559,6.726,2.559,9.285,0.004 c2.57-2.574,2.559-6.726,0-9.285c-0.617-0.614-1.386-0.926-2.144-1.246c-0.02-0.007-0.035-0.023-0.055-0.031 c-0.722-0.301-1.434-0.406-2.202-0.438c-0.082-0.004-0.157-0.046-0.238-0.046c-0.207,0-0.418,0.011-0.637,0.011 c-0.234,0-0.5-0.038-0.77-0.086l16.574-16.578l14.246-14.05c-0.442,2.086,0.114,4.344,1.73,5.961c2.559,2.558,6.726,2.558,9.282,0 c2.574-2.574,2.558-6.726,0-9.281c-0.614-0.618-1.387-0.93-2.145-1.25c-0.019-0.008-0.031-0.023-0.05-0.031 c-0.723-0.297-1.434-0.406-2.203-0.434c-0.082-0.004-0.157-0.05-0.238-0.05c-0.207,0-0.418,0.011-0.637,0.011 c-0.234,0-0.5-0.035-0.774-0.086l23.594-23.594L245.054,240.87z" class="st0" style="fill:#e1564b"/></g></svg>