<svg xmlns="http://www.w3.org/2000/svg" xmlns:xlink="http://www.w3.org/1999/xlink" id="_x31_0" x="0" y="0" version="1.1" viewBox="0 0 512 512" style="width:256px;height:256px;opacity:1" xml:space="preserve"><style type="text/css">.st0{fill:#374149}</style><g><path d="M238.238,263.043c-4.078,4.078-4.078,10.797,0.082,14.878c4.078,4.078,10.719,4.078,14.801,0 c4.157-4.082,4.157-10.801,0.078-14.878C249.039,258.961,242.398,258.961,238.238,263.043z M243.84,268.641 c1.039-0.961,2.718-0.961,3.758,0c0.961,1.039,0.961,2.718-0.078,3.679c-1.038,1.039-2.64,1.039-3.602,0 C242.879,271.359,242.801,269.68,243.84,268.641z" class="st0" style="fill:orange"/><path d="M290.32,216.641c-2.562,2.558-2.562,6.718,0,9.281c2.559,2.559,6.719,2.559,9.278,0 c2.562-2.562,2.562-6.722,0-9.281C297.039,214.082,292.879,214.082,290.32,216.641z" class="st0" style="fill:orange"/><path d="M326.078,180.801c-2.559,2.558-2.559,6.718,0,9.282c2.562,2.64,6.722,2.558,9.281,0 c2.558-2.563,2.641-6.723,0-9.282C332.801,178.242,328.641,178.242,326.078,180.801z" class="st0" style="fill:orange"/><path d="M470.641,116.402c-2.883-4.562-6-9.043-9.282-13.359c-13.679-18.242-29.762-34.641-47.679-48.801 c-4.242-3.363-8.641-6.562-13.122-9.52C359.438,16.481,309.68,0,256,0C114.558,0,0,114.641,0,256c0,141.442,114.558,256,256,256 c141.359,0,256-114.558,256-256C512,204.481,496.879,156.562,470.641,116.402z M328.32,213.809c0.477-2.035-0.05-4.34-1.679-5.969 c-2.562-2.558-6.723-2.558-9.282,0c-2.558,2.562-2.558,6.722,0,9.281c0.578,0.578,1.301,0.848,2,1.161 c0.062,0.027,0.114,0.074,0.176,0.102c0.687,0.281,1.363,0.386,2.098,0.418c0.086,0.004,0.16,0.05,0.25,0.05 c0.273,0,0.546-0.019,0.835-0.019c0.219,0,0.462,0.027,0.703,0.062l-75.262,75.348c-1.519,1.519-4,1.519-5.519,0l-20.723-20.641 c-1.437-1.442-1.437-4,0.082-5.519l75.359-75.36c-0.48,2.157,0.078,4.477,1.762,6.238c2.559,2.481,6.719,2.481,9.278,0 c2.562-2.641,2.562-6.801,0-9.281c-0.562-0.59-1.266-0.848-1.942-1.172c-0.09-0.043-0.16-0.114-0.254-0.153 c-0.68-0.285-1.352-0.398-2.078-0.43c-0.094-0.004-0.172-0.054-0.266-0.054c-0.266,0-0.539,0.019-0.828,0.019 c-0.214,0-0.453-0.027-0.699-0.062l23.558-23.621l5.09-5.058c6.262,9.953,14.644,18.41,24.43,24.918 c0.574,0.394,1.106,0.851,1.691,1.23l-15.434,15.394L328.32,213.809z M355.519,129.282c-0.878,0.878-2.082,1.281-3.199,1.281 c-0.562,0-1.199-0.16-1.762-0.32c-0.48-0.242-0.961-0.562-1.359-0.961L337.84,118l6.32-6.32l11.278,11.363 C357.199,124.722,357.199,127.602,355.519,129.282z M355.918,99.922L362,93.84c0.32,0.082,0.558,0.242,0.801,0.402l10.718,10.718 c1.758,1.762,1.758,4.558,0,6.321c-0.878,0.878-2.082,1.281-3.199,1.281c-1.121,0-2.242-0.48-3.121-1.281L355.918,99.922z M398.238,178.402l-11.359-11.359c-0.398-0.402-0.641-0.961-0.879-1.363c-0.722-1.68-0.402-3.598,0.961-4.958 c0.879-0.801,2-1.281,3.118-1.281c1.121,0,2.242,0.48,3.121,1.281l11.359,11.36L398.238,178.402z M404.961,142.722 c0.879-0.882,2-1.363,3.118-1.281c1.199-0.082,2.32,0.398,3.121,1.281l6.481,6.398c1.359,2,2.64,4,3.839,6.078l-5.199,5.121 l-11.359-11.359C403.278,147.282,403.278,144.481,404.961,142.722z M70.32,312c-5.359-17.758-8.242-36.558-8.242-56 c0-106.957,86.961-193.918,193.922-193.918c28.718,0,56.078,6.32,80.641,17.679c4.828,2.188,9.5,4.629,14.113,7.246 c0.274,0.164,0.539,0.293,0.813,0.465L314,124.961l8.32,17.602L209.359,255.519c-8.398,8.402-8.398,22.161,0,30.641l1.359,1.359 L186.32,312l-5.922,5.922l-14.879,21.122l-10.801,15.359c-0.718,1.039-0.961,2.238-0.878,3.359 c0.078,1.199,0.558,2.238,1.438,3.199c1.762,1.762,4.48,1.918,6.48,0.558l32.082-22.476l3.918-2.723L222.16,312l6.558-6.558 l1.36,1.359c2.48,2.481,5.359,4.242,8.48,5.199c4.402,1.519,9.199,1.519,13.602,0c3.118-0.957,6.078-2.718,8.558-5.199 l112.879-112.879l17.602,8.321l28.386-28.391l8.031-7.968c2.634,4.949,5.028,10.054,7.262,15.316 c9.679,22.961,15.038,48.242,15.038,74.801c0,19.442-2.878,38.242-8.238,56H278.078L272,318.082 c-7.121,7.117-16.562,11.038-26.641,11.038c-5.121,0-10.16-1.038-14.718-2.961l-7.524,7.477l-5.437,5.242l0.16,0.004l-0.16,0.16h86 v26.316h-95.039v63.219l-0.039,15.492c-27.664-7.043-53.094-19.996-74.602-37.43V393.68h48v-16h-17.762h-10.801H134v-38.637h11.918 l12.066-17.137l6.977-9.746h-0.113l0.113-0.16H70.32z M319.68,420.16v-81.117h32.961V424 c-28.481,16.481-61.442,25.922-96.641,25.922c-10.641,0-21.121-0.878-31.359-2.562v-66h79.039v22.801h-55.36v15.793V420l0,0v0.16 H319.68z M117.886,391.879c-15.148-15.336-27.754-33.211-37.086-52.836H118v30.988L117.886,391.879z M431.164,339.11 c-3.351,7.015-7.098,13.793-11.246,20.25h-51.277v-20.316h43.801L431.164,339.11z M408.558,375.457 c-9.527,12.262-20.637,23.25-32.867,32.821c-2.328,1.789-4.625,3.609-7.05,5.281v-38.199h24.816L408.558,375.457z" class="st0" style="fill:orange"/></g></svg>